# xmcd
#
# Track frame offsets:
#	150
#	7090
#	23417
#	40507
#	54589
#	70232
#	81577
#	99385
#	116172
#	132595
#	146912
#	159465
#	180027
#
# Disc length: 2583 seconds
#
# Revision: 17
# Processed by: cddbd v1.5.2PL0 Copyright (c) Steve Scherf et al.
# Submitted via: Jack! The Knife 20 Magnifico
#
DISCID=aa0a150d
DTITLE=Slayer - God Hates Us All
DYEAR=2001
DGENRE=Metal
TTITLE0=Darkness Of Christ
TTITLE1=Disciple
TTITLE2=God Send Death
TTITLE3=New Faith
TTITLE4=Cast Down
TTITLE5=Threshold
TTITLE6=Exile
TTITLE7=Seven Faces
TTITLE8=Bloodline
TTITLE9=Deviance
TTITLE10=War Zone
TTITLE11=Here Comes The Pain
TTITLE12=Payback
EXTD=Matt Hyde
EXTT0=Jeff Hanneman
EXTT1=Jeff Hanneman
EXTT2=Jeff Hanneman
EXTT3=Kerry King
EXTT4=Kerry King
EXTT5=Jeff Hanneman
EXTT6=Kerry King
EXTT7=Kerry King
EXTT8=Hanneman, King
EXTT9=Jeff Hanneman
EXTT10=Kerry King
EXTT11=Kerry King
EXTT12=Kerry King
PLAYORDER=
